<svg width="97" height="27" viewBox="0 0 97 27" fill="none" xmlns="http://www.w3.org/2000/svg">
<path d="M15.0215 19.2852C15.0215 18.2891 14.6699 17.5273 13.9668 17C13.2637 16.4609 11.998 15.8984 10.1699 15.3125C8.3418 14.7148 6.89453 14.1289 5.82812 13.5547C2.92188 11.9844 1.46875 9.86914 1.46875 7.20898C1.46875 5.82617 1.85547 4.5957 2.62891 3.51758C3.41406 2.42773 4.5332 1.57813 5.98633 0.96875C7.45117 0.359375 9.0918 0.0546875 10.9082 0.0546875C12.7363 0.0546875 14.3652 0.388672 15.7949 1.05664C17.2246 1.71289 18.332 2.64453 19.1172 3.85156C19.9141 5.05859 20.3125 6.42969 20.3125 7.96484H15.0391C15.0391 6.79297 14.6699 5.88477 13.9316 5.24023C13.1934 4.58398 12.1562 4.25586 10.8203 4.25586C9.53125 4.25586 8.5293 4.53125 7.81445 5.08203C7.09961 5.62109 6.74219 6.33594 6.74219 7.22656C6.74219 8.05859 7.1582 8.75586 7.99023 9.31836C8.83398 9.88086 10.0703 10.4082 11.6992 10.9004C14.6992 11.8027 16.8848 12.9219 18.2559 14.2578C19.627 15.5938 20.3125 17.2578 20.3125 19.25C20.3125 21.4648 19.4746 23.2051 17.7988 24.4707C16.123 25.7246 13.8672 26.3516 11.0312 26.3516C9.0625 26.3516 7.26953 25.9941 5.65234 25.2793C4.03516 24.5527 2.79883 23.5625 1.94336 22.3086C1.09961 21.0547 0.677734 19.6016 0.677734 17.9492H5.96875C5.96875 20.7734 7.65625 22.1855 11.0312 22.1855C12.2852 22.1855 13.2637 21.9336 13.9668 21.4297C14.6699 20.9141 15.0215 20.1992 15.0215 19.2852ZM44.7285 26H39.4551V15.0312H29.1719V26H23.8984V0.40625H29.1719V10.7773H39.4551V0.40625H44.7285V26ZM70.375 13.7832C70.375 16.3027 69.9297 18.5117 69.0391 20.4102C68.1484 22.3086 66.8711 23.7734 65.207 24.8047C63.5547 25.8359 61.6562 26.3516 59.5117 26.3516C57.3906 26.3516 55.498 25.8418 53.834 24.8223C52.1699 23.8027 50.8809 22.3496 49.9668 20.4629C49.0527 18.5645 48.5898 16.3848 48.5781 13.9238V12.6582C48.5781 10.1387 49.0293 7.92383 49.9316 6.01367C50.8457 4.0918 52.1289 2.62109 53.7812 1.60156C55.4453 0.570312 57.3438 0.0546875 59.4766 0.0546875C61.6094 0.0546875 63.502 0.570312 65.1543 1.60156C66.8184 2.62109 68.1016 4.0918 69.0039 6.01367C69.918 7.92383 70.375 10.1328 70.375 12.6406V13.7832ZM65.0312 12.623C65.0312 9.93945 64.5508 7.90039 63.5898 6.50586C62.6289 5.11133 61.2578 4.41406 59.4766 4.41406C57.707 4.41406 56.3418 5.10547 55.3809 6.48828C54.4199 7.85938 53.9336 9.875 53.9219 12.5352V13.7832C53.9219 16.3965 54.4023 18.4238 55.3633 19.8652C56.3242 21.3066 57.707 22.0273 59.5117 22.0273C61.2812 22.0273 62.6406 21.3359 63.5898 19.9531C64.5391 18.5586 65.0195 16.5312 65.0312 13.8711V12.623ZM79.4805 16.9824V26H74.207V0.40625H84.1914C86.1133 0.40625 87.8008 0.757812 89.2539 1.46094C90.7188 2.16406 91.8438 3.16602 92.6289 4.4668C93.4141 5.75586 93.8066 7.22656 93.8066 8.87891C93.8066 11.3867 92.9453 13.3672 91.2227 14.8203C89.5117 16.2617 87.1387 16.9824 84.1035 16.9824H79.4805ZM79.4805 12.7109H84.1914C85.5859 12.7109 86.6465 12.3828 87.373 11.7266C88.1113 11.0703 88.4805 10.1328 88.4805 8.91406C88.4805 7.66016 88.1113 6.64648 87.373 5.87305C86.6348 5.09961 85.6152 4.70117 84.3145 4.67773H79.4805V12.7109ZM90.2734 23.5039C90.2734 22.6953 90.543 22.0391 91.082 21.5352C91.6328 21.0312 92.3184 20.7793 93.1387 20.7793C93.9707 20.7793 94.6562 21.0312 95.1953 21.5352C95.7461 22.0391 96.0215 22.6953 96.0215 23.5039C96.0215 24.3008 95.752 24.9512 95.2129 25.4551C94.6738 25.9473 93.9824 26.1934 93.1387 26.1934C92.3066 26.1934 91.6211 25.9473 91.082 25.4551C90.543 24.9512 90.2734 24.3008 90.2734 23.5039Z" fill="#3F51B5"/>
</svg>
